<?xml version="1.0" encoding="utf-8"?>
<!-- Generator: Adobe Illustrator 21.0.0, SVG Export Plug-In . SVG Version: 6.00 Build 0)  -->
<svg version="1.1" id="Capa_1" xmlns="http://www.w3.org/2000/svg" xmlns:xlink="http://www.w3.org/1999/xlink" x="0px" y="0px"
	 viewBox="0 0 512 512" style="enable-background:new 0 0 512 512;" xml:space="preserve">
<style type="text/css">
	.st0{fill:#059FF5;}
</style>
<g>
	<path class="st0" d="M256,0C114.6,0,0,114.6,0,256s114.6,256,256,256s256-114.6,256-256S397.4,0,256,0z M403.1,180.5
		c0.1,3.3,0.2,6.5,0.2,9.8c0,100.3-76.4,216-216,216c-42.9,0-82.8-12.6-116.4-34.1c5.9,0.7,12,1.1,18.1,1.1
		c35.6,0,68.3-12.1,94.3-32.5c-33.2-0.6-61.2-22.6-70.9-52.7c4.6,0.9,9.4,1.4,14.3,1.4c6.9,0,13.6-0.9,20-2.7
		c-34.7-7-60.9-37.7-60.9-74.4c0-0.3,0-0.6,0-1c10.2,5.7,21.9,9.1,34.4,9.5c-20.4-13.6-33.8-36.8-33.8-63.2c0-13.9,3.7-27,10.3-38.2
		c37.4,45.9,93.4,76.1,156.5,79.3c-1.3-5.6-2-11.4-2-17.3c0-41.9,34-75.9,75.9-75.9c21.8,0,41.6,9.2,55.4,24
		c17.3-3.4,33.5-9.7,48.2-18.4c-5.7,17.7-17.7,32.6-33.4,42c15.4-1.8,30-5.9,43.6-12C430.8,156.5,418,169.8,403.1,180.5z"/>
</g>
</svg>
